<svg width="41" height="40" viewBox="0 0 41 40" fill="none" xmlns="http://www.w3.org/2000/svg">
<g clip-path="url(#clip0_10401_78577)">
<path d="M27.4004 31.0957H5.52539C4.9591 31.0957 4.5 31.5548 4.5 32.1211C4.5 33.82 5.87724 35.1973 7.57617 35.1973H25.3496C27.0485 35.1973 28.4258 33.82 28.4258 32.1211C28.4258 31.5548 27.9667 31.0957 27.4004 31.0957Z" fill="#50B16B"/>
<path d="M38.9925 7.56441C35.0177 5.21551 30.9866 5.21551 27.0117 7.56441C26.5373 7.84475 26.3693 8.45 26.6313 8.93481L29.7441 14.6927H36.2602L39.3729 8.93481C39.6349 8.45 39.4669 7.84475 38.9925 7.56441Z" fill="#50B16B"/>
<path d="M30.4453 16.7402H35.5723V19.8164H30.4453V16.7402Z" fill="#50B16B"/>
<path d="M30.4453 32.6338C30.4453 34.0496 31.593 35.1973 33.0088 35.1973C34.4246 35.1973 35.5723 34.0496 35.5723 32.6338V21.8672H30.4453V32.6338Z" fill="#50B16B"/>
<path d="M22.0217 13.574C20.5369 12.0892 18.5628 11.2715 16.4629 11.2715C14.363 11.2715 12.3889 12.0892 10.9041 13.574C9.41928 15.0588 8.60156 17.0329 8.60156 19.1328C8.60156 21.2327 9.41928 23.2068 10.9041 24.6916C12.3889 26.1764 14.363 26.9941 16.4629 26.9941C18.5628 26.9941 20.5369 26.1764 22.0217 24.6916C23.5065 23.2068 24.3242 21.2327 24.3242 19.1328C24.3242 17.0329 23.5065 15.0588 22.0217 13.574ZM12.5959 21.1249C12.3335 21.1249 12.0711 21.0249 11.8709 20.8246C11.4705 20.4241 11.4705 19.7749 11.8709 19.3745L16.7046 14.5408C17.105 14.1403 17.7543 14.1403 18.1547 14.5408C18.5552 14.9412 18.5552 15.5904 18.1547 15.9909L13.321 20.8246C13.1207 21.0249 12.8584 21.1249 12.5959 21.1249ZM21.0549 18.8911L16.2212 23.7248C16.021 23.925 15.7586 24.0252 15.4962 24.0252C15.2339 24.0252 14.9714 23.9251 14.7712 23.7248C14.3708 23.3243 14.3708 22.6751 14.7712 22.2747L19.6049 17.441C20.0053 17.0405 20.6546 17.0405 21.055 17.441C21.4554 17.8414 21.4554 18.4906 21.0549 18.8911Z" fill="#50B16B"/>
<path d="M16.4629 7.16992C9.86655 7.16992 4.5 12.5365 4.5 19.1328C4.5 23.2524 6.59323 26.8923 9.77188 29.0449H16.4629C10.9886 29.0449 6.55078 24.6071 6.55078 19.1328C6.55078 13.6585 10.9886 9.2207 16.4629 9.2207C21.9372 9.2207 26.375 13.6585 26.375 19.1328C26.375 24.6071 21.9372 29.0449 16.4629 29.0449H23.1539C26.3326 26.8923 28.4258 23.2524 28.4258 19.1328C28.4258 12.5365 23.0592 7.16992 16.4629 7.16992Z" fill="#50B16B"/>
</g>
<defs>
<clipPath id="clip0_10401_78577">
<rect width="35" height="35" fill="white" transform="translate(4.5 3)"/>
</clipPath>
</defs>
</svg>
