<svg width="41" height="40" viewBox="0 0 41 40" fill="none" xmlns="http://www.w3.org/2000/svg">
<g clip-path="url(#clip0_10401_44180)">
<path d="M16.3971 5H7.78403C6.52454 5 5.5 6.02454 5.5 7.28403V15.8971C5.5 17.1566 6.52454 18.1812 7.78403 18.1812H16.3971C17.6566 18.1812 18.6812 17.1566 18.6812 15.8971V7.28403C18.681 6.02454 17.6566 5 16.3971 5Z" fill="#50B16B"/>
<path d="M33.2174 5H24.6043C23.3449 5 22.3203 6.02454 22.3203 7.28403V15.8971C22.3203 17.1566 23.3449 18.1812 24.6043 18.1812H33.2174C34.4769 18.1812 35.5015 17.1566 35.5015 15.8971V7.28403C35.5015 6.02454 34.4769 5 33.2174 5Z" fill="#50B16B"/>
<path d="M16.3971 21.8184H7.78403C6.52454 21.8184 5.5 22.8428 5.5 24.1023V32.7154C5.5 33.9749 6.52454 34.9994 7.78403 34.9994H16.3971C17.6566 34.9994 18.6812 33.9749 18.6812 32.7154V24.1023C18.681 22.8428 17.6566 21.8184 16.3971 21.8184Z" fill="#50B16B"/>
<path d="M33.2174 21.8184H24.6043C23.3449 21.8184 22.3203 22.8429 22.3203 24.1024V32.7155C22.3203 33.975 23.3449 34.9995 24.6043 34.9995H33.2174C34.4769 34.9994 35.5015 33.9749 35.5015 32.7154V24.1023C35.5015 22.8428 34.4769 21.8184 33.2174 21.8184Z" fill="#50B16B"/>
</g>
<defs>
<clipPath id="clip0_10401_44180">
<rect width="30" height="30" fill="white" transform="translate(5.5 5)"/>
</clipPath>
</defs>
</svg>
