<svg width="41" height="40" viewBox="0 0 41 40" fill="none" xmlns="http://www.w3.org/2000/svg">
<path d="M33.0469 12.0991C32.7428 11.7373 32.3636 11.446 31.9356 11.2454C31.5076 11.0448 31.0411 10.9398 30.5685 10.9375H27.6591V16.4063C27.6591 16.6963 27.5439 16.9745 27.3388 17.1796C27.1336 17.3848 26.8554 17.5 26.5654 17.5C26.2753 17.5 25.9971 17.3848 25.792 17.1796C25.5868 16.9745 25.4716 16.6963 25.4716 16.4063V10.9375H14.5341V16.4063C14.5341 16.6963 14.4189 16.9745 14.2138 17.1796C14.0086 17.3848 13.7304 17.5 13.4404 17.5C13.1503 17.5 12.8721 17.3848 12.667 17.1796C12.4618 16.9745 12.3466 16.6963 12.3466 16.4063V10.9375H9.43724C8.96469 10.9429 8.49876 11.0493 8.07079 11.2498C7.64281 11.4502 7.26269 11.7399 6.95599 12.0994C6.6493 12.459 6.42312 12.88 6.29268 13.3342C6.16224 13.7884 6.13055 14.2653 6.19974 14.7328L8.6388 30.2094C8.79635 31.2411 9.31923 32.1819 10.1122 32.8604C10.9052 33.5389 11.9155 33.9101 12.9591 33.9063H27.0466C28.0903 33.9101 29.1006 33.5389 29.8935 32.8604C30.6865 32.1819 31.2094 31.2411 31.3669 30.2094L33.806 14.7328C33.8774 14.265 33.8465 13.7873 33.7155 13.3326C33.5844 12.8779 33.3563 12.4571 33.0469 12.0991Z" fill="#50B16B"/>
<path d="M14.5312 8.75C14.5312 7.2996 15.1074 5.9086 16.133 4.88301C17.1586 3.85742 18.5496 3.28125 20 3.28125C21.4504 3.28125 22.8414 3.85742 23.867 4.88301C24.8926 5.9086 25.4688 7.2996 25.4688 8.75V10.9375H27.6562V8.75C27.6562 6.71944 26.8496 4.77204 25.4138 3.33621C23.978 1.90039 22.0306 1.09375 20 1.09375C17.9694 1.09375 16.022 1.90039 14.5862 3.33621C13.1504 4.77204 12.3438 6.71944 12.3438 8.75V10.9375H14.5312V8.75Z" fill="#50B16B"/>
</svg>
