<svg width="41" height="40" viewBox="0 0 41 40" fill="none" xmlns="http://www.w3.org/2000/svg">
<g clip-path="url(#clip0_10401_78596)">
<path d="M9.03125 8.53125H14.3254V10.296H9.03125V8.53125Z" fill="#50B16B"/>
<path d="M26.6797 8.53125H31.9738V10.296H26.6797V8.53125Z" fill="#50B16B"/>
<path d="M20.5625 18.6875L23.9791 17.8051L24.4202 19.5134L21.0037 20.3958L20.5625 18.6875Z" fill="#50B16B"/>
<path d="M8.94218 12.0605C7.04412 12.0605 5.5 13.6047 5.5 15.5027V29.7949C5.5 31.6929 7.04412 33.237 8.94218 33.237H10.7941V12.0605H8.94218Z" fill="#50B16B"/>
<path d="M28.4449 12.0597H25.035L24.2078 8.33774C24.0023 7.4121 23.1963 6.76562 22.2481 6.76562H18.7592C17.811 6.76562 17.0051 7.4121 16.7996 8.33768L15.9724 12.0597H12.5625V33.2362H28.4449V12.0597ZM25.2541 15.6547L26.5788 20.7804L19.7444 22.5465L18.4199 17.4208L25.2541 15.6547ZM18.5221 8.72039C18.547 8.60851 18.6445 8.53033 18.7591 8.53033H22.2481C22.3627 8.53033 22.4602 8.60851 22.4851 8.72045L23.2273 12.0597H17.7801L18.5221 8.72039ZM17.2684 29.7068C15.6466 29.7068 14.3272 28.3874 14.3272 26.7656C14.3272 25.1439 15.6466 23.8244 17.2684 23.8244C18.8901 23.8244 20.2096 25.1439 20.2096 26.7656C20.2096 28.3874 18.8901 29.7068 17.2684 29.7068Z" fill="#50B16B"/>
<path d="M17.2624 27.9428C17.9122 27.9428 18.4389 27.4161 18.4389 26.7663C18.4389 26.1166 17.9122 25.5898 17.2624 25.5898C16.6127 25.5898 16.0859 26.1166 16.0859 26.7663C16.0859 27.4161 16.6127 27.9428 17.2624 27.9428Z" fill="#50B16B"/>
<path d="M32.0551 12.0605H30.2031V33.237H32.0551C33.9531 33.237 35.4972 31.6929 35.4972 29.7948V15.5027C35.4972 13.6047 33.9531 12.0605 32.0551 12.0605Z" fill="#50B16B"/>
</g>
<defs>
<clipPath id="clip0_10401_78596">
<rect width="30" height="30" fill="white" transform="translate(5.5 5)"/>
</clipPath>
</defs>
</svg>
